<svg width="30" height="50" viewBox="0 0 90 104" fill="none" xmlns="http://www.w3.org/2000/svg">
<path d="M87.8907 25.6739L67.7809 2.44001C67.1124 1.66722 66.3186 1.0542 65.445 0.635953C64.5714 0.21771 63.635 0.00244141 62.6894 0.00244141C61.7438 0.00244141 60.8074 0.21771 59.9338 0.635953C59.0602 1.0542 58.2664 1.66722 57.5978 2.44001L2.11046 66.562C1.43899 67.3318 0.906632 68.2481 0.544331 69.2578C0.182031 70.2674 -0.00298536 71.3502 3.64259e-05 72.4432V95.6823C3.64259e-05 97.8889 0.758576 100.005 2.10879 101.565C3.459 103.126 5.29027 104.002 7.19976 104.002H27.3095C28.2553 104.006 29.1923 103.792 30.066 103.373C30.9397 102.955 31.7327 102.34 32.3988 101.564L70.0489 58.0599L71.6148 65.2879L55.0554 84.419C54.38 85.1989 54.0002 86.2569 53.9998 87.3604C53.9994 88.4638 54.3783 89.5222 55.0532 90.3028C55.7281 91.0834 56.6436 91.5222 57.5985 91.5227C58.5533 91.5232 59.4693 91.0853 60.1447 90.3054L78.144 69.5052C78.5843 68.9974 78.9031 68.3664 79.0695 67.6738C79.2359 66.9812 79.2442 66.2505 79.0935 65.5531L75.9886 51.1958L87.8907 37.4416C88.5594 36.669 89.0899 35.7517 89.4518 34.7422C89.8137 33.7326 90 32.6505 90 31.5578C90 30.465 89.8137 29.3829 89.4518 28.3733C89.0899 27.3638 88.5594 26.4465 87.8907 25.6739ZM7.19976 80.7633L20.1098 95.6823H7.19976V80.7633ZM28.7989 93.9611L8.6892 70.722L46.7982 26.6827L66.908 49.9218L28.7989 93.9611ZM71.9973 44.0405L51.8921 20.8014L62.6916 8.32128L82.7969 31.5604L71.9973 44.0405Z" fill="black"/>
</svg>
